<svg width="55" height="52" viewBox="0 0 55 52" fill="none" xmlns="http://www.w3.org/2000/svg">
<path d="M40.1467 51H26C12.1901 51 1 39.8099 1 26C1 12.1901 12.1901 1 26 1H28.757C42.5669 1 53.757 12.1901 53.757 26V49.5155C53.757 50.1267 53.3578 50.6257 52.8588 50.6382C49.8273 50.7255 40.2091 51 40.1467 51Z" stroke="#6F47E0" stroke-opacity="0.2" stroke-width="0.8265" stroke-miterlimit="10"/>
<path d="M36.7032 25.3263C36.8779 29.256 35.2936 32.6367 32.1374 34.5204C30.7152 35.3687 29.6548 41.4316 29.6548 41.4316L23.33 41.5938C23.33 41.5938 21.9951 35.2689 20.8599 34.5454C18.0905 32.7989 16.1943 29.7799 16.0321 26.262C15.7701 20.5609 20.1863 15.7205 25.8874 15.4586C31.6134 15.2091 36.4413 19.6252 36.7032 25.3263Z" stroke="#6F47E0" stroke-width="0.9087" stroke-miterlimit="10"/>
<path d="M22.981 34.3333L22.0454 24.8647L26.1871 26.9605L30.0045 24.5029L30.0419 34.4331" stroke="#6F47E0" stroke-width="0.9087" stroke-miterlimit="10"/>
<path d="M21.4712 34.9572L31.7132 34.7576" stroke="#6F47E0" stroke-width="0.9087" stroke-miterlimit="10"/>
<path d="M22.9185 37.9511L30.3661 37.6143" stroke="#6F47E0" stroke-width="0.9087" stroke-miterlimit="10"/>
</svg>
