<svg width="124" height="81" viewBox="0 0 124 81" fill="none" xmlns="http://www.w3.org/2000/svg">
<path d="M121.563 62.4058C120.874 65.0877 120.632 67.8648 120.847 70.6253C112.66 54.3659 105.97 61.832 97.6218 72.6568C96.4488 73.9764 93.1335 77.5933 92.3977 74.301C93.8317 62.4815 103.225 52.9667 104.974 40.9721C105.419 39.2218 105.308 37.3768 104.658 35.6921C104.008 34.0075 102.851 32.5664 101.346 31.5682C99.841 30.5699 98.063 30.0638 96.2576 30.1198C94.4523 30.1757 92.7088 30.791 91.2683 31.8806C83.0939 37.9228 78.9165 47.4797 72.1492 54.6949C61.9992 68.2241 43.2486 65.0528 42.5463 46.9857C51.7701 45.082 68.0332 35.0425 59.8932 24.3021C47.6948 15.5915 37.7543 34.4415 38.2105 44.9599C11.9847 48.3148 1.72336 22.7353 1.19385 0.732441L0.594261 0.733765C0.117522 23.765 11.089 50.2941 38.2275 47.6633C38.0766 63.3277 54.6546 73.871 68.2589 65.1502C78.3366 58.9345 83.8979 48.2605 91.5757 39.7964C93.4278 37.961 96.4422 34.6838 98.6793 37.2948C99.9252 42.395 96.4127 48.1899 94.6284 53.1234C92.0692 59.2761 88.7797 65.2212 87.7659 71.9747C86.5841 77.0946 91.7886 82.3598 96.6778 79.0297C105.939 72.1023 108.729 53.4227 119.998 71.2882C117.7 69.6545 114.315 68.5146 111.67 69.9934L111.741 70.2122C115.425 70.5439 117.912 72.9719 120.985 74.6391C121.249 74.7998 121.557 74.8726 121.866 74.8471C122.174 74.8216 122.466 74.6991 122.7 74.4973C122.935 74.2954 123.099 74.0245 123.17 73.7234C123.241 73.4224 123.214 73.1067 123.094 72.8217C121.893 69.5259 121.648 65.9725 121.826 62.4703L121.563 62.4058ZM43.5364 37.4486C52.5742 11.6502 72.8226 34.2943 42.509 44.0712C42.5983 41.8318 42.943 39.6099 43.5364 37.4486ZM121.334 73.4661C121.346 73.5011 121.346 73.4866 121.334 73.4661V73.4661Z" fill="#5CB0AC"/>
</svg>
