<svg width="242" height="239" viewBox="0 0 242 239" fill="none" xmlns="http://www.w3.org/2000/svg">
<path fill-rule="evenodd" clip-rule="evenodd" d="M118.252 8.89514C118.252 17.5011 120.677 40.8083 121.034 40.8083C121.391 40.8083 123.816 17.5011 123.816 8.89514C123.816 0.289218 121.391 0 121.034 0C120.677 0 118.252 0.289218 118.252 8.89514ZM127.091 99.5451C127.091 78.9795 121.824 40.8082 121.048 40.8082C120.272 40.8082 115.006 78.9795 115.006 99.5451C115.006 99.8909 115.007 100.231 115.01 100.566C114.141 99.6246 113.187 98.6323 112.141 97.5864C97.6331 83.078 66.9891 59.8646 66.4416 60.4121C65.8941 60.9596 89.1075 91.6036 103.616 106.112C106.286 108.782 108.607 110.851 110.62 112.447C107.788 112.026 104.169 111.759 99.545 111.759C78.9794 111.759 40.8082 117.026 40.8082 117.802C40.8082 118.578 78.9794 123.844 99.545 123.844C102.367 123.844 104.815 123.745 106.938 123.572C105.895 124.524 104.789 125.582 103.616 126.755C89.1075 141.264 65.8941 171.908 66.4416 172.455C66.9891 173.003 97.6331 149.789 112.141 135.281C113.283 134.139 114.315 133.061 115.247 132.044C115.093 134.075 115.006 136.395 115.006 139.044C115.006 159.61 120.272 197.781 121.048 197.781C121.824 197.781 127.091 159.61 127.091 139.044C127.091 136.372 127.002 134.034 126.845 131.991C127.79 133.024 128.838 134.119 130 135.281C144.508 149.789 175.152 173.003 175.699 172.455C176.247 171.908 153.034 141.264 138.525 126.755C137.351 125.581 136.245 124.523 135.202 123.571C137.242 123.727 139.574 123.816 142.242 123.816C162.76 123.816 200.843 118.562 200.843 117.788C200.843 117.013 162.76 111.759 142.242 111.759C137.846 111.759 134.361 112 131.597 112.387C133.593 110.799 135.889 108.748 138.526 106.112C153.034 91.6034 176.247 60.9594 175.7 60.4119C175.152 59.8645 144.508 83.0778 130 97.5863C128.936 98.6503 127.967 99.659 127.086 100.615C127.089 100.264 127.091 99.9078 127.091 99.5451ZM118.252 229.694C118.252 221.088 120.677 197.781 121.034 197.781C121.391 197.781 123.816 221.088 123.816 229.694C123.816 238.3 121.391 238.59 121.034 238.59C120.677 238.59 118.252 238.3 118.252 229.694ZM40.8083 117.816C40.8083 118.173 17.5011 120.598 8.89514 120.598C0.289218 120.598 0 118.173 0 117.816C0 117.458 0.289218 115.033 8.89514 115.033C17.5011 115.033 40.8083 117.458 40.8083 117.816ZM232.682 120.578C224.096 120.578 200.843 118.158 200.843 117.802C200.843 117.445 224.096 115.026 232.682 115.026C241.268 115.026 241.557 117.445 241.557 117.802C241.557 118.158 241.268 120.578 232.682 120.578ZM175.691 172.465C175.439 172.717 190.171 190.87 196.242 196.942C202.313 203.013 204.228 201.506 204.48 201.254C204.732 201.002 206.239 199.087 200.168 193.016C194.097 186.945 175.943 172.213 175.691 172.465ZM45.9 196.942C51.9712 190.871 66.703 172.717 66.4509 172.465C66.1988 172.213 48.0454 186.945 41.9742 193.016C35.903 199.087 37.4098 201.002 37.6619 201.254C37.914 201.506 39.8288 203.013 45.9 196.942ZM66.4509 60.4022C66.703 60.1501 51.9712 41.9968 45.9 35.9255C39.8288 29.8543 37.914 31.3611 37.6619 31.6132C37.4098 31.8653 35.903 33.7801 41.9742 39.8513C48.0454 45.9225 66.1988 60.6544 66.4509 60.4022ZM196.242 35.9253C190.171 41.9965 175.439 60.1499 175.691 60.402C175.943 60.6541 194.097 45.9223 200.168 39.8511C206.239 33.7798 204.733 31.865 204.48 31.6129C204.228 31.3608 202.314 29.8541 196.242 35.9253Z" fill="#F4F7FC"/>
</svg>
