<svg width="18" height="20" viewBox="0 0 18 20" fill="none" xmlns="http://www.w3.org/2000/svg">
<path d="M17.4445 15.5861C17.1393 16.2848 16.778 16.928 16.3594 17.5193C15.7888 18.3255 15.3217 18.8835 14.9616 19.1934C14.4035 19.702 13.8055 19.9625 13.1652 19.9773C12.7055 19.9773 12.1511 19.8477 11.5058 19.5847C10.8584 19.323 10.2634 19.1934 9.71937 19.1934C9.1488 19.1934 8.53686 19.323 7.88233 19.5847C7.2268 19.8477 6.69871 19.9847 6.29495 19.9983C5.6809 20.0242 5.06884 19.7563 4.45791 19.1934C4.06798 18.8563 3.58026 18.2786 2.99598 17.4601C2.3691 16.586 1.85372 15.5725 1.44996 14.417C1.01755 13.1689 0.800781 11.9603 0.800781 10.7902C0.800781 9.44984 1.09304 8.29383 1.67844 7.32509C2.13851 6.54696 2.75056 5.93316 3.51659 5.48255C4.28263 5.03195 5.11033 4.80233 6.00169 4.78763C6.48941 4.78763 7.129 4.93714 7.92381 5.23096C8.71638 5.52576 9.22529 5.67526 9.44841 5.67526C9.61522 5.67526 10.1806 5.50045 11.1389 5.15195C12.0452 4.82874 12.8102 4.69492 13.4368 4.74764C15.1348 4.88343 16.4105 5.54675 17.2589 6.74177C15.7403 7.6536 14.989 8.93072 15.004 10.5691C15.0177 11.8452 15.4849 12.9071 16.403 13.7503C16.8191 14.1417 17.2838 14.4441 17.8008 14.6589C17.6887 14.9812 17.5703 15.2898 17.4445 15.5861ZM13.5502 0.400114C13.5502 1.40034 13.1814 2.33425 12.4464 3.19867C11.5594 4.22629 10.4865 4.8201 9.32308 4.7264C9.30826 4.60641 9.29966 4.48011 9.29966 4.3474C9.29966 3.38718 9.72148 2.35956 10.4706 1.51934C10.8446 1.09392 11.3202 0.74019 11.897 0.458013C12.4726 0.180046 13.017 0.0263242 13.529 0C13.5439 0.133715 13.5502 0.267438 13.5502 0.400101V0.400114Z" fill="#0B1728"/>
</svg>
