<svg width="34" height="34" viewBox="0 0 34 34" fill="none" xmlns="http://www.w3.org/2000/svg">
<path d="M31.1673 17C31.1673 9.18001 24.8207 2.83334 17.0007 2.83334C9.18065 2.83334 2.83398 9.18001 2.83398 17C2.83398 24.82 9.18065 31.1667 17.0007 31.1667" stroke="#4A5FE1" stroke-width="1.5" stroke-linecap="round" stroke-linejoin="round"/>
<path d="M11.3349 4.25H12.7516C9.98906 12.5233 9.98906 21.4767 12.7516 29.75H11.3349" stroke="#4A5FE1" stroke-width="1.5" stroke-linecap="round" stroke-linejoin="round"/>
<path d="M21.25 4.25C22.6242 8.38667 23.3183 12.6933 23.3183 17" stroke="#4A5FE1" stroke-width="1.5" stroke-linecap="round" stroke-linejoin="round"/>
<path d="M4.25 22.6667V21.25C8.38667 22.6242 12.6933 23.3184 17 23.3184" stroke="#4A5FE1" stroke-width="1.5" stroke-linecap="round" stroke-linejoin="round"/>
<path d="M4.25 12.75C12.5233 9.98748 21.4767 9.98748 29.75 12.75" stroke="#4A5FE1" stroke-width="1.5" stroke-linecap="round" stroke-linejoin="round"/>
<path d="M25.7833 30.3167C28.287 30.3167 30.3167 28.287 30.3167 25.7834C30.3167 23.2797 28.287 21.25 25.7833 21.25C23.2796 21.25 21.25 23.2797 21.25 25.7834C21.25 28.287 23.2796 30.3167 25.7833 30.3167Z" stroke="#4A5FE1" stroke-width="1.5" stroke-linecap="round" stroke-linejoin="round"/>
<path d="M31.1667 31.1667L29.75 29.75" stroke="#4A5FE1" stroke-width="1.5" stroke-linecap="round" stroke-linejoin="round"/>
</svg>
