<svg width="36" height="36" viewBox="0 0 36 36" fill="none" xmlns="http://www.w3.org/2000/svg">
<path d="M10.8894 3H25.0944C26.0694 3 26.9394 3.03004 27.7194 3.13504C31.8744 3.60004 32.9994 5.55001 32.9994 10.89V20.37C32.9994 25.71 31.8744 27.66 27.7194 28.125C26.9394 28.23 26.0844 28.26 25.0944 28.26H10.8894C9.91436 28.26 9.04436 28.23 8.26436 28.125C4.10936 27.66 2.98438 25.71 2.98438 20.37V10.89C2.98438 5.55001 4.10936 3.60004 8.26436 3.13504C9.04436 3.03004 9.91436 3 10.8894 3Z" stroke="white" stroke-width="1.5" stroke-linecap="round" stroke-linejoin="round"/>
<path d="M20.3691 12.48H25.8891" stroke="white" stroke-width="1.5" stroke-linecap="round" stroke-linejoin="round"/>
<path d="M10.1094 21.165H10.1394H25.9044" stroke="white" stroke-width="1.5" stroke-linecap="round" stroke-linejoin="round"/>
<path d="M10.5 33H25.5" stroke="white" stroke-width="1.5" stroke-linecap="round" stroke-linejoin="round"/>
<path d="M10.7925 12.45H10.806" stroke="white" stroke-width="2" stroke-linecap="round" stroke-linejoin="round"/>
<path d="M15.7418 12.45H15.7552" stroke="white" stroke-width="2" stroke-linecap="round" stroke-linejoin="round"/>
</svg>
