<svg width="38" height="38" viewBox="0 0 38 38" fill="none" xmlns="http://www.w3.org/2000/svg">
<path d="M15.2791 21.85L17.8283 23.8292C18.1608 24.1617 18.905 24.3199 19.3958 24.3199H22.5308C23.5124 24.3199 24.5891 23.5758 24.8425 22.5941L26.8216 16.5932C27.2333 15.4374 26.4891 14.4558 25.2541 14.4558H21.9608C21.4699 14.4558 21.0583 14.0441 21.1375 13.4741L21.5491 10.8457C21.7075 10.1016 21.2166 9.27821 20.4724 9.04071C19.8074 8.78738 18.9841 9.11985 18.6674 9.61069L15.295 14.6299" stroke="#13BA56" stroke-width="1.5" stroke-miterlimit="10"/>
<path d="M11.0833 21.8501V13.7908C11.0833 12.6349 11.5741 12.2233 12.73 12.2233H13.5533C14.7091 12.2233 15.2 12.6349 15.2 13.7908V21.8501C15.2 23.0059 14.7091 23.4175 13.5533 23.4175H12.73C11.5741 23.4175 11.0833 23.0059 11.0833 21.8501Z" stroke="#13BA56" stroke-width="1.5" stroke-linecap="round" stroke-linejoin="round"/>
<path d="M28.5 29.8616H27.2967C26.03 29.8616 24.8267 30.3524 23.94 31.2391L21.2325 33.9151C19.9975 35.1342 17.9867 35.1342 16.7517 33.9151L14.0442 31.2391C13.1575 30.3524 11.9383 29.8616 10.6875 29.8616H9.5C6.87167 29.8616 4.75 27.7558 4.75 25.1592V7.88495C4.75 5.28828 6.87167 3.1825 9.5 3.1825H28.5C31.1283 3.1825 33.25 5.28828 33.25 7.88495V25.1592C33.25 27.74 31.1283 29.8616 28.5 29.8616Z" stroke="#13BA56" stroke-width="1.5" stroke-miterlimit="10" stroke-linecap="round" stroke-linejoin="round"/>
</svg>
