<svg width="38" height="38" viewBox="0 0 38 38" fill="none" xmlns="http://www.w3.org/2000/svg">
<path d="M15.2793 21.85L17.8285 23.8292C18.161 24.1617 18.9051 24.3199 19.396 24.3199H22.531C23.5126 24.3199 24.5893 23.5758 24.8426 22.5941L26.8218 16.5932C27.2335 15.4374 26.4893 14.4558 25.2543 14.4558H21.961C21.4701 14.4558 21.0585 14.0441 21.1376 13.4741L21.5493 10.8457C21.7076 10.1016 21.2168 9.27821 20.4726 9.04071C19.8076 8.78738 18.9843 9.11985 18.6676 9.61069L15.2951 14.6299" stroke="white" stroke-width="1.5" stroke-miterlimit="10"/>
<path d="M11.084 21.8501V13.7908C11.084 12.6349 11.5748 12.2233 12.7306 12.2233H13.554C14.7098 12.2233 15.2007 12.6349 15.2007 13.7908V21.8501C15.2007 23.0059 14.7098 23.4176 13.554 23.4176H12.7306C11.5748 23.4176 11.084 23.0059 11.084 21.8501Z" stroke="white" stroke-width="1.5" stroke-linecap="round" stroke-linejoin="round"/>
<path d="M28.5 29.8617H27.2967C26.03 29.8617 24.8267 30.3525 23.94 31.2391L21.2325 33.9151C19.9975 35.1342 17.9867 35.1342 16.7517 33.9151L14.0442 31.2391C13.1575 30.3525 11.9383 29.8617 10.6875 29.8617H9.5C6.87167 29.8617 4.75 27.7559 4.75 25.1592V7.88498C4.75 5.28831 6.87167 3.18253 9.5 3.18253H28.5C31.1283 3.18253 33.25 5.28831 33.25 7.88498V25.1592C33.25 27.74 31.1283 29.8617 28.5 29.8617Z" stroke="white" stroke-width="1.5" stroke-miterlimit="10" stroke-linecap="round" stroke-linejoin="round"/>
</svg>
