<svg width="34" height="34" viewBox="0 0 34 34" fill="none" xmlns="http://www.w3.org/2000/svg">
<path d="M11.3333 17.2833H21.25" stroke="#8932E0" stroke-width="1.5" stroke-miterlimit="10" stroke-linecap="round" stroke-linejoin="round"/>
<path d="M11.3333 22.95H17.5383" stroke="#8932E0" stroke-width="1.5" stroke-miterlimit="10" stroke-linecap="round" stroke-linejoin="round"/>
<path d="M14.1666 8.49998H19.8333C22.6666 8.49998 22.6666 7.08331 22.6666 5.66665C22.6666 2.83331 21.25 2.83331 19.8333 2.83331H14.1666C12.75 2.83331 11.3333 2.83331 11.3333 5.66665C11.3333 8.49998 12.75 8.49998 14.1666 8.49998Z" stroke="#8932E0" stroke-width="1.5" stroke-miterlimit="10" stroke-linecap="round" stroke-linejoin="round"/>
<path d="M22.6667 5.69501C27.3842 5.95001 29.75 7.69251 29.75 14.1667V22.6667C29.75 28.3333 28.3333 31.1667 21.25 31.1667H12.75C5.66667 31.1667 4.25 28.3333 4.25 22.6667V14.1667C4.25 7.70667 6.61583 5.95001 11.3333 5.69501" stroke="#8932E0" stroke-width="1.5" stroke-miterlimit="10" stroke-linecap="round" stroke-linejoin="round"/>
</svg>
