<svg width="34" height="34" viewBox="0 0 34 34" fill="none" xmlns="http://www.w3.org/2000/svg">
<path d="M11.334 17.2833H21.2507" stroke="white" stroke-width="1.5" stroke-miterlimit="10" stroke-linecap="round" stroke-linejoin="round"/>
<path d="M11.334 22.95H17.539" stroke="white" stroke-width="1.5" stroke-miterlimit="10" stroke-linecap="round" stroke-linejoin="round"/>
<path d="M14.1673 8.50001H19.834C22.6673 8.50001 22.6673 7.08334 22.6673 5.66668C22.6673 2.83334 21.2507 2.83334 19.834 2.83334H14.1673C12.7507 2.83334 11.334 2.83334 11.334 5.66668C11.334 8.50001 12.7507 8.50001 14.1673 8.50001Z" stroke="white" stroke-width="1.5" stroke-miterlimit="10" stroke-linecap="round" stroke-linejoin="round"/>
<path d="M22.6667 5.69501C27.3842 5.95001 29.75 7.69251 29.75 14.1667V22.6667C29.75 28.3333 28.3333 31.1667 21.25 31.1667H12.75C5.66667 31.1667 4.25 28.3333 4.25 22.6667V14.1667C4.25 7.70667 6.61583 5.95001 11.3333 5.69501" stroke="white" stroke-width="1.5" stroke-miterlimit="10" stroke-linecap="round" stroke-linejoin="round"/>
</svg>
