<svg width="36" height="36" viewBox="0 0 36 36" fill="none" xmlns="http://www.w3.org/2000/svg">
<path d="M24 3H12C6 3 3 6 3 12V31.5C3 32.325 3.675 33 4.5 33H24C30 33 33 30 33 24V12C33 6 30 3 24 3Z" stroke="white" stroke-width="1.5" stroke-linecap="round" stroke-linejoin="round"/>
<path d="M19.3652 11.76L11.5802 19.545C11.2802 19.845 10.9952 20.43 10.9352 20.85L10.5152 23.82C10.3652 24.9 11.1152 25.65 12.1952 25.5L15.1652 25.08C15.5852 25.02 16.1702 24.735 16.4702 24.435L24.2552 16.65C25.5902 15.315 26.2352 13.755 24.2552 11.775C22.2752 9.77998 20.7152 10.41 19.3652 11.76Z" stroke="white" stroke-width="1.5" stroke-miterlimit="10" stroke-linecap="round" stroke-linejoin="round"/>
<path d="M18.2559 12.87C18.9159 15.225 20.7609 17.085 23.1309 17.745" stroke="white" stroke-width="1.5" stroke-miterlimit="10" stroke-linecap="round" stroke-linejoin="round"/>
</svg>
