<svg width="36" height="36" viewBox="0 0 36 36" fill="none" xmlns="http://www.w3.org/2000/svg">
<path d="M24 3H12C6 3 3 6 3 12V31.5C3 32.325 3.675 33 4.5 33H24C30 33 33 30 33 24V12C33 6 30 3 24 3Z" stroke="#E05C32" stroke-width="1.5" stroke-linecap="round" stroke-linejoin="round"/>
<path d="M19.365 11.76L11.58 19.545C11.28 19.845 10.995 20.43 10.935 20.85L10.515 23.82C10.365 24.9 11.115 25.65 12.195 25.5L15.165 25.08C15.585 25.02 16.17 24.735 16.47 24.435L24.255 16.65C25.59 15.315 26.235 13.755 24.255 11.775C22.275 9.77998 20.715 10.41 19.365 11.76Z" stroke="#E05C32" stroke-width="1.5" stroke-miterlimit="10" stroke-linecap="round" stroke-linejoin="round"/>
<path d="M18.255 12.87C18.915 15.225 20.76 17.085 23.13 17.745" stroke="#E05C32" stroke-width="1.5" stroke-miterlimit="10" stroke-linecap="round" stroke-linejoin="round"/>
</svg>
