<svg width="40" height="40" viewBox="0 0 40 40" fill="none" xmlns="http://www.w3.org/2000/svg">
<circle cx="20" cy="20" r="19" stroke="#0B1728" stroke-opacity="0.14" stroke-width="2"/>
<mask id="path-2-inside-1_400_1941" fill="white">
<path d="M16.5639 1.3104C16.4643 0.768762 15.9437 0.40791 15.4077 0.534357C12.0862 1.31793 9.01462 2.94002 6.4901 5.25271C3.72007 7.79032 1.72074 11.0568 0.721093 14.678C-0.278555 18.2992 -0.238105 22.1288 0.837812 25.728C1.91373 29.3273 3.98161 32.5508 6.80462 35.0294C9.62763 37.5079 13.0916 39.1412 16.7999 39.7423C20.5082 40.3434 24.3107 39.8879 27.7721 38.4281C31.2335 36.9682 34.2138 34.563 36.3716 31.4879C38.3381 28.6853 39.5491 25.4296 39.8962 22.0346C39.9523 21.4868 39.5271 21.0173 38.9771 20.9886C38.4271 20.9599 37.9609 21.3831 37.9019 21.9306C37.5761 24.9514 36.4904 27.8464 34.7391 30.3423C32.7965 33.1108 30.1134 35.2762 26.9971 36.5905C23.8809 37.9048 20.4575 38.3148 17.119 37.7737C13.7805 37.2326 10.6619 35.7621 8.12041 33.5307C5.57889 31.2993 3.71722 28.3973 2.74858 25.1569C1.77995 21.9165 1.74354 18.4688 2.64351 15.2087C3.54347 11.9486 5.34344 9.00781 7.83725 6.72325C10.0855 4.66363 12.8158 3.21241 15.7689 2.49849C16.3042 2.36908 16.6635 1.85204 16.5639 1.3104Z"/>
</mask>
<path d="M16.5639 1.3104C16.4643 0.768762 15.9437 0.40791 15.4077 0.534357C12.0862 1.31793 9.01462 2.94002 6.4901 5.25271C3.72007 7.79032 1.72074 11.0568 0.721093 14.678C-0.278555 18.2992 -0.238105 22.1288 0.837812 25.728C1.91373 29.3273 3.98161 32.5508 6.80462 35.0294C9.62763 37.5079 13.0916 39.1412 16.7999 39.7423C20.5082 40.3434 24.3107 39.8879 27.7721 38.4281C31.2335 36.9682 34.2138 34.563 36.3716 31.4879C38.3381 28.6853 39.5491 25.4296 39.8962 22.0346C39.9523 21.4868 39.5271 21.0173 38.9771 20.9886C38.4271 20.9599 37.9609 21.3831 37.9019 21.9306C37.5761 24.9514 36.4904 27.8464 34.7391 30.3423C32.7965 33.1108 30.1134 35.2762 26.9971 36.5905C23.8809 37.9048 20.4575 38.3148 17.119 37.7737C13.7805 37.2326 10.6619 35.7621 8.12041 33.5307C5.57889 31.2993 3.71722 28.3973 2.74858 25.1569C1.77995 21.9165 1.74354 18.4688 2.64351 15.2087C3.54347 11.9486 5.34344 9.00781 7.83725 6.72325C10.0855 4.66363 12.8158 3.21241 15.7689 2.49849C16.3042 2.36908 16.6635 1.85204 16.5639 1.3104Z" stroke="#4A5FE1" stroke-width="4" mask="url(#path-2-inside-1_400_1941)"/>
<g filter="url(#filter0_d_400_1941)">
<path d="M27 20L16.5 26.0622V13.9378L27 20Z" fill="#0B1728"/>
</g>
<defs>
<filter id="filter0_d_400_1941" x="14.5" y="12.9379" width="14.5" height="16.1243" filterUnits="userSpaceOnUse" color-interpolation-filters="sRGB">
<feFlood flood-opacity="0" result="BackgroundImageFix"/>
<feColorMatrix in="SourceAlpha" type="matrix" values="0 0 0 0 0 0 0 0 0 0 0 0 0 0 0 0 0 0 127 0" result="hardAlpha"/>
<feOffset dy="1"/>
<feGaussianBlur stdDeviation="1"/>
<feComposite in2="hardAlpha" operator="out"/>
<feColorMatrix type="matrix" values="0 0 0 0 0.0901961 0 0 0 0 0.0862745 0 0 0 0 0.109804 0 0 0 0.3 0"/>
<feBlend mode="normal" in2="BackgroundImageFix" result="effect1_dropShadow_400_1941"/>
<feBlend mode="normal" in="SourceGraphic" in2="effect1_dropShadow_400_1941" result="shape"/>
</filter>
</defs>
</svg>
