<svg width="15" height="12" viewBox="0 0 15 12" fill="none" xmlns="http://www.w3.org/2000/svg">
<path d="M14.7127 0.00672484C14.0723 0.458456 13.3632 0.803959 12.6128 1.02993C12.21 0.566818 11.6748 0.238578 11.0794 0.0896016C10.484 -0.0593751 9.85717 -0.021901 9.28377 0.196956C8.71036 0.415812 8.21801 0.805492 7.87329 1.31329C7.52857 1.82109 7.34812 2.42251 7.35635 3.0362V3.70496C6.1811 3.73544 5.01655 3.47478 3.96642 2.94622C2.91629 2.41765 2.01318 1.63758 1.33752 0.675484C1.33752 0.675484 -1.33752 6.69431 4.68131 9.36935C3.30402 10.3043 1.66331 10.773 0 10.7069C6.01883 14.0507 13.3752 10.7069 13.3752 3.01614C13.3746 2.82986 13.3567 2.64404 13.3217 2.46107C14.0042 1.78796 14.4859 0.938114 14.7127 0.00672484Z" fill="#1C96E8"/>
</svg>
