<svg width="54" height="51" viewBox="0 0 54 51" fill="none" xmlns="http://www.w3.org/2000/svg">
<g opacity="0.3">
<path d="M27.8541 32.6886C28.0776 33.0851 28.1421 33.5517 28.0344 33.994C27.9268 34.4362 27.6552 34.821 27.2745 35.0705C26.1177 35.7191 25.0133 36.4571 23.9715 37.2778L24.0509 37.2063L23.9636 37.2778C23.8366 37.3731 23.8922 37.3334 23.9636 37.2778L23.8842 37.3413L23.4952 37.6748L22.7727 38.3258C22.2804 38.7863 21.8437 39.3421 21.3276 39.7788C21.0141 40.0815 20.6052 40.2659 20.1708 40.3007C19.7364 40.3354 19.3034 40.2183 18.9457 39.9693C18.5787 39.7078 18.3219 39.3194 18.2251 38.8793C18.1283 38.4392 18.1983 37.9788 18.4216 37.5874C19.4466 36.3228 20.644 35.2083 21.9787 34.2766C23.0806 33.4368 24.2489 32.688 25.4721 32.0375C25.8771 31.8205 26.3498 31.7671 26.7929 31.8882C27.2361 32.0093 27.6158 32.2958 27.8541 32.6886Z" fill="white"/>
<path d="M29.648 20.4854L30.0132 20.5886L30.4975 20.7871C30.7319 20.9028 30.9317 21.078 31.0771 21.2952C31.2022 21.4159 31.295 21.5661 31.3471 21.7319C31.4787 21.9754 31.5444 22.2491 31.5376 22.5259C31.5376 22.7085 31.5376 22.8832 31.4741 23.0658L31.2835 23.5501C31.163 23.7812 30.9887 23.98 30.7754 24.1297C30.5852 24.3129 30.3495 24.4418 30.0926 24.5029L29.7353 24.622C29.3639 24.7252 28.9713 24.7252 28.5999 24.622C28.2429 24.5311 27.915 24.3507 27.6471 24.098L27.3057 23.6692C27.1079 23.3463 27.0009 22.976 26.9961 22.5973C26.9795 22.3234 27.0342 22.0499 27.1549 21.8034C27.2415 21.5426 27.3884 21.3059 27.5836 21.1126C27.8397 20.8463 28.1594 20.6495 28.5126 20.541C28.8789 20.4194 29.2715 20.4002 29.648 20.4854Z" fill="white"/>
<path d="M13.6586 24.177C14.018 24.2515 14.3519 24.4184 14.6272 24.6613C15.125 25.0104 15.4913 25.5164 15.6673 26.0984C15.7756 26.4584 15.8103 26.8366 15.7693 27.2103C15.7284 27.5841 15.6127 27.9458 15.4291 28.2739C15.0119 28.8823 14.5557 29.4631 14.0635 30.0127C13.5466 30.5442 12.992 31.0377 12.4041 31.4894C12.0046 31.8065 11.5856 32.0982 11.1496 32.3628C10.8019 32.591 10.4117 32.7465 10.0024 32.8202C9.59306 32.8939 9.17313 32.8841 8.76769 32.7916C8.47507 32.7018 8.18862 32.5931 7.91018 32.466L7.47351 32.2596C7.08438 32.0292 6.77804 31.6817 6.59836 31.2667C6.41868 30.8517 6.37484 30.3906 6.47309 29.9491C6.52867 29.7745 6.5763 29.6077 6.616 29.4331C6.75279 28.8844 7.02589 28.3792 7.40998 27.9642C7.66918 27.6956 7.97613 27.4775 8.31512 27.3211C8.72001 27.0805 9.10976 26.8153 9.48224 26.5271C10.032 26.0494 10.5321 25.5174 10.9749 24.9392C11.5132 24.4343 12.2081 24.1289 12.944 24.0737L13.6586 24.177Z" fill="white"/>
<path d="M34.905 42.7091C35.1105 42.9055 35.2752 43.1406 35.3897 43.4008C35.5041 43.661 35.5661 43.9413 35.572 44.2255C35.5709 44.7964 35.3555 45.3461 34.9686 45.7659L32.674 48.2431C32.5787 48.3463 32.4914 48.4495 32.3961 48.5448C32.0769 48.8719 31.6891 49.1241 31.2607 49.2832L30.6017 49.569L29.903 49.8628C29.7948 49.9171 29.6835 49.9648 29.5695 50.0057C29.3667 50.0574 29.1592 50.0893 28.9502 50.101C28.799 50.1041 28.6487 50.0775 28.5078 50.0225C28.3669 49.9676 28.2382 49.8854 28.1291 49.7807C28.02 49.676 27.9326 49.5508 27.8718 49.4123C27.8111 49.2738 27.7782 49.1247 27.7751 48.9735C27.7836 48.6584 27.8454 48.347 27.9577 48.0525C28.0451 47.8143 28.1324 47.5761 28.2277 47.3379C28.323 47.0997 28.3945 46.8933 28.4818 46.671C28.6195 46.237 28.8467 45.8366 29.1487 45.4959L29.4743 45.1783L31.8562 42.7964C32.2586 42.3906 32.8014 42.1547 33.3727 42.1374C33.9388 42.1188 34.4894 42.3242 34.905 42.7091Z" fill="white"/>
<path d="M5.10729 42.2085C5.50423 42.3122 5.84563 42.5654 6.06002 42.9152C6.17108 43.0933 6.2446 43.2922 6.276 43.4997C6.30741 43.7073 6.29606 43.919 6.24266 44.122C6.14098 44.5176 5.89074 44.8589 5.54396 45.0748L3.78131 46.0037L2.93175 46.4563C2.69529 46.5944 2.44842 46.7139 2.19336 46.8136C1.91921 46.8872 1.63322 46.9061 1.35175 46.8692C1.11922 46.8714 0.889966 46.8143 0.685714 46.7031C0.481462 46.5919 0.309005 46.4305 0.184634 46.234C0.0637864 46.0296 0 45.7965 0 45.5591C0 45.3217 0.0637864 45.0886 0.184634 44.8842C0.307023 44.6575 0.453415 44.4445 0.62131 44.2491C0.827984 44.0548 1.06373 43.8941 1.32001 43.7727L2.16957 43.328L3.93217 42.3912C4.28978 42.1928 4.70633 42.128 5.10729 42.2085Z" fill="white"/>
<path d="M22.1539 0.00882571L22.662 0.215261C22.9025 0.338698 23.1095 0.518485 23.2655 0.739281L23.4322 0.953657C23.5896 1.19036 23.6827 1.46401 23.7021 1.74763C23.7734 2.02364 23.7734 2.31323 23.7021 2.58924L23.5036 3.09739L23.3369 3.31176C23.1978 3.54624 22.9974 3.73837 22.7573 3.86754L22.2571 4.0978C21.8905 4.19695 21.5042 4.19695 21.1376 4.0978L20.7803 4.01046C20.5994 3.97897 20.4313 3.89631 20.296 3.77226L20.153 3.66111C20.0141 3.54292 19.9098 3.38925 19.8513 3.21648C19.7243 3.07357 19.7243 3.07357 19.7243 3.07357C19.7243 3.07357 19.7243 3.01799 19.7243 2.98623L19.6767 2.81155V2.76392C19.5776 2.49456 19.5583 2.20235 19.6211 1.92231V1.63648C19.6761 1.36892 19.7991 1.12006 19.9784 0.913956C20.0707 0.75693 20.1985 0.623696 20.3515 0.52491C20.5497 0.336565 20.7931 0.202561 21.0582 0.135865H21.344C21.5982 0.0233688 21.8775 -0.0204391 22.1539 0.00882571Z" fill="white"/>
<path d="M42.1386 3.5264C42.3505 3.71344 42.5117 3.95107 42.6071 4.21716C42.7468 4.4754 42.8179 4.76518 42.8135 5.05877C42.8216 5.44492 42.7256 5.82613 42.5356 6.16239C42.3427 6.49019 42.0694 6.76344 41.7416 6.95637L40.4237 7.89326C40.2093 8.04411 39.9949 8.21879 39.7726 8.35376L39.4232 8.55226L39.2168 8.64753C39.0962 8.71909 38.9599 8.75999 38.8198 8.76663C38.7275 8.77712 38.6343 8.77712 38.5419 8.76663H38.3831C38.0311 8.76046 37.6929 8.62802 37.4304 8.39346L37.216 8.12351C37.092 7.92268 37.0235 7.69253 37.0175 7.45657V7.31365C37.0175 7.31365 37.0175 7.25808 37.0175 7.22632L37.0652 6.80551L37.216 6.42441C37.2716 6.30531 37.343 6.18621 37.3986 6.06711C37.5336 5.82892 37.6924 5.60661 37.8432 5.37636L38.7245 4.0266C38.9157 3.69748 39.1894 3.42384 39.5185 3.23262C39.8454 3.02965 40.2215 2.91984 40.6062 2.91504C41.1753 2.92104 41.7217 3.13902 42.1386 3.5264Z" fill="white"/>
<path d="M52.0786 22.9627C52.3403 23.0433 52.5778 23.1879 52.7694 23.3835C53.1697 23.772 53.4008 24.3026 53.4125 24.8603C53.4125 25.0509 53.4125 25.2335 53.3489 25.4241C53.2625 25.7787 53.0845 26.1045 52.8329 26.3689L51.5943 27.8298L50.9909 28.5444L50.8321 28.7349C50.5752 29.0242 50.2465 29.2405 49.8793 29.3622C49.6923 29.4112 49.5007 29.4405 49.3076 29.4495H49.0536L48.6089 29.4019C48.3904 29.3582 48.1875 29.2568 48.0214 29.1081C47.7197 28.9048 47.5002 28.6009 47.4021 28.2506C47.3463 27.9886 47.3065 27.7235 47.283 27.4566C47.2752 27.3615 47.2752 27.2659 47.283 27.1708C47.2884 26.904 47.3651 26.6436 47.5053 26.4165C47.6085 26.2577 47.7356 26.1069 47.8467 25.956L47.9817 25.7734L48.5772 24.9794L49.7523 23.3915C49.9297 23.1832 50.1601 23.0269 50.4192 22.9389C50.6683 22.8247 50.9391 22.7656 51.2132 22.7656C51.4872 22.7656 51.758 22.8247 52.0071 22.9389L52.0786 22.9627Z" fill="white"/>
</g>
</svg>
