<svg width="160" height="133" viewBox="0 0 160 133" fill="none" xmlns="http://www.w3.org/2000/svg">
<path d="M13.1114 118.825L12.7422 119.188L13.1179 119.545L25.5799 131.363L25.8729 131.641L26.2063 131.413C39.9317 122.022 51.2576 108.825 60.1909 91.8406C69.1289 75.1387 73.6014 57.6959 73.6014 39.5185C73.6014 28.6121 70.301 19.3018 63.6889 11.6166L63.6821 11.6087L63.675 11.6012C56.749 4.19735 47.8601 0.5 37.0507 0.5C26.2484 0.5 17.5051 4.04676 10.8715 11.1635C3.95306 18.5591 0.5 27.7306 0.5 38.6431C0.5 49.8536 4.25587 58.6125 11.8044 64.8503C18.8994 70.9541 27.8689 74.0466 38.6748 74.1569C37.1625 82.0663 34.1072 89.9853 29.5006 97.9147C24.4754 106.054 19.0117 113.023 13.1114 118.825ZM99.01 118.825L98.6408 119.188L99.0165 119.545L111.478 131.363L111.772 131.641L112.105 131.413C125.83 122.022 137.156 108.825 146.09 91.8405C155.028 75.1386 159.5 57.6959 159.5 39.5185C159.5 28.6121 156.2 19.3018 149.587 11.6166L149.581 11.6087L149.574 11.6012C142.648 4.19735 133.759 0.5 122.949 0.5C112.147 0.5 103.404 4.04676 96.7701 11.1635C89.8517 18.5591 86.3986 27.7306 86.3986 38.6431C86.3986 49.8536 90.1546 58.6126 97.7031 64.8504C104.798 70.9542 113.768 74.0466 124.573 74.1569C123.061 82.0663 120.006 89.9852 115.399 97.9146C110.374 106.054 104.91 113.023 99.01 118.825Z" stroke="#0B1728" stroke-opacity="0.1"/>
</svg>
